<?xml version="1.0" encoding="UTF-8"?>
<svg width="80px" height="73px" viewBox="0 0 80 73" version="1.1" xmlns="http://www.w3.org/2000/svg" xmlns:xlink="http://www.w3.org/1999/xlink">
    <!-- Generator: Sketch 61.2 (89653) - https://sketch.com -->
    <title>enter-shift</title>
    <desc>Created with Sketch.</desc>
    <g id="Test" stroke="none" stroke-width="1" fill="none" fill-rule="evenodd">
        <g id="Desktop-HD" transform="translate(-1182.000000, -1559.000000)">
            <g id="enter-shift" transform="translate(1182.000000, 1559.000000)">
                <g id="calendar" transform="translate(0.000000, 4.000000)" fill="#FFFFFF" fill-rule="nonzero">
                    <path d="M16.95,37.2 L16.05,37.2 C15.075,37.2 14.325,37.875 14.325,38.925 L14.325,39.825 C14.325,40.95 15.225,41.55 16.05,41.55 L16.95,41.55 C17.925,41.55 18.675,40.875 18.675,39.825 L18.675,38.925 C18.675,37.875 18,37.2 16.95,37.2 Z" id="Path"></path>
                    <path d="M30.75,37.2 L29.85,37.2 C28.875,37.2 28.125,37.875 28.125,38.925 L28.125,39.825 C28.05,40.95 28.725,41.55 29.85,41.55 L30.75,41.55 C31.725,41.55 32.475,40.875 32.475,39.825 L32.475,38.925 C32.4,37.875 31.725,37.2 30.75,37.2 Z" id="Path"></path>
                    <path d="M44.175,37.2 L43.275,37.2 C42.3,37.2 41.55,37.875 41.55,38.925 L41.55,39.825 C41.55,40.95 42.225,41.55 43.275,41.55 L44.175,41.55 C45.15,41.55 45.9,40.875 45.9,39.825 L45.9,38.925 C45.9,37.875 45.15,37.2 44.175,37.2 Z" id="Path"></path>
                    <path d="M55.95,37.2 L55.05,37.2 C54.075,37.2 53.325,37.875 53.325,38.925 L53.325,39.825 C53.325,40.95 54.15,41.55 55.05,41.55 L55.95,41.55 C56.925,41.55 57.675,40.875 57.675,39.825 L57.675,38.925 C57.6,37.875 56.925,37.2 55.95,37.2 Z" id="Path"></path>
                    <path d="M16.95,46.35 L16.05,46.35 C15.075,46.35 14.325,47.025 14.325,48.075 L14.325,48.975 C14.325,50.1 15.225,50.7 16.05,50.7 L16.95,50.7 C17.925,50.7 18.675,50.025 18.675,48.975 L18.675,48 C18.675,47.025 18,46.35 16.95,46.35 Z" id="Path"></path>
                    <path d="M30.75,46.35 L29.85,46.35 C28.875,46.35 28.125,47.025 28.125,48.075 L28.125,48.975 C28.05,50.1 28.725,50.7 29.85,50.7 L30.75,50.7 C31.725,50.7 32.475,50.025 32.475,48.975 L32.475,48 C32.4,47.025 31.725,46.35 30.75,46.35 Z" id="Path"></path>
                    <path d="M44.175,46.35 L43.275,46.35 C42.3,46.35 41.55,47.025 41.55,48.075 L41.55,48.975 C41.55,50.1 42.225,50.7 43.275,50.7 L44.175,50.7 C45.15,50.7 45.9,50.025 45.9,48.975 L45.9,48 C45.9,47.025 45.15,46.35 44.175,46.35 Z" id="Path"></path>
                    <path d="M55.95,46.35 L55.05,46.35 C54.075,46.35 53.325,47.025 53.325,48.075 L53.325,48.975 C53.325,50.1 54.15,50.7 55.05,50.7 L55.95,50.7 C56.925,50.7 57.675,50.025 57.675,48.975 L57.675,48 C57.6,47.025 56.925,46.35 55.95,46.35 Z" id="Path"></path>
                    <path d="M16.95,55.95 L16.05,55.95 C15.075,55.95 14.325,56.625 14.325,57.675 L14.325,58.575 C14.325,59.55 15.225,60.3 16.05,60.3 L16.95,60.3 C17.925,60.3 18.675,59.625 18.675,58.575 L18.675,57.675 C18.675,56.625 18,55.95 16.95,55.95 Z" id="Path"></path>
                    <path d="M30.75,55.95 L29.85,55.95 C28.875,55.95 28.125,56.625 28.125,57.675 L28.125,58.575 C28.05,59.55 28.725,60.3 29.85,60.3 L30.75,60.3 C31.725,60.3 32.475,59.625 32.475,58.575 L32.475,57.675 C32.4,56.625 31.725,55.95 30.75,55.95 Z" id="Path"></path>
                    <path d="M69.45,15.525 L38.625,15.525 L38.625,10.65 C40.5,9.825 41.775,8.025 41.775,5.85 C41.775,3 39.45,0.6 36.525,0.6 C33.6,0.6 31.275,2.925 31.275,5.85 C31.275,8.025 32.55,9.825 34.425,10.65 L34.425,15.525 L4.05,15.525 C2.1,15.525 0.45,17.1 0.45,19.125 L0.45,64.8 C0.45,66.75 2.025,68.4 4.05,68.4 L69.525,68.4 C71.475,68.4 73.125,66.825 73.125,64.8 L73.125,19.125 C73.05,17.175 71.475,15.525 69.45,15.525 Z M68.925,19.65 L68.925,27.375 L4.575,27.375 L4.575,19.65 L68.925,19.65 Z M4.575,64.275 L4.575,31.5 L68.925,31.5 L68.925,64.2 L4.575,64.2 L4.575,64.275 Z" id="Shape"></path>
                </g>
                <g id="timer" transform="translate(43.000000, 0.000000)">
                    <path d="M19.71,5.76 L19.71,2.61 L22.05,2.61 C22.725,2.61 23.31,2.07 23.31,1.35 C23.31,0.63 22.77,0.09 22.05,0.09 L14.895,0.09 C14.22,0.09 13.635,0.63 13.635,1.35 C13.635,2.07 14.175,2.61 14.895,2.61 L17.19,2.61 L17.19,5.76 C7.695,6.39 0.18,14.31 0.18,23.94 C0.18,34.02 8.37,42.21 18.405,42.21 C28.44,42.21 36.630201,34.02 36.630201,23.94 C36.675,14.31 29.16,6.39 19.71,5.76 Z M18.45,39.735 C9.765,39.735 2.7,32.67 2.7,23.94 C2.7,21.825 3.15,19.665 4.005,17.73 C4.815,15.84 6.03,14.085 7.515,12.645 C9,11.205 10.8,10.035 12.69,9.27 C13.59,8.91 14.535,8.64 15.48,8.46 C17.865,8.01 20.385,8.1 22.725,8.775 C24.705,9.36 26.595,10.305 28.215,11.61 C29.835,12.915 31.185,14.49 32.175,16.29 C33.21,18.135 33.84,20.205 34.065,22.275 C34.11,22.815 34.1552138,23.355 34.1552138,23.895 C34.2,32.625 27.135,39.735 18.45,39.735 Z" id="Shape" fill="#FFFFFF" fill-rule="nonzero"></path>
                    <circle id="Oval" fill="#FFFFFF" cx="18.75" cy="24" r="16.5"></circle>
                    <path d="M27.72,23.76 L19.71,23.76 L19.71,14.355 C19.71,13.68 19.17,13.095 18.45,13.095 C17.73,13.095 17.19,13.635 17.19,14.355 L17.19,23.76 L15.345,23.76 C14.67,23.76 14.085,24.3 14.085,25.02 C14.085,25.74 14.625,26.28 15.345,26.28 L17.19,26.28 L17.19,28.125 C17.19,28.8 17.73,29.385 18.45,29.385 C19.17,29.385 19.71,28.845 19.71,28.125 L19.71,26.28 L27.72,26.28 C28.395,26.28 28.98,25.74 28.98,25.02 C28.98,24.3 28.395,23.76 27.72,23.76 Z" id="Path" fill="#002564" fill-rule="nonzero"></path>
                </g>
            </g>
        </g>
    </g>
</svg>